:version 1.10
:name ASF
:units
  mass 1
  length 1
  angle deg
:documentation
  ASF file generated by Kaydara
:root
  axis xyz
  order  tx ty tz rx ry rz
  position 0 0 0
  orientation 0 0 0
:bonedata
  begin
    id 1
    name RightUpLegDummy
    direction -0.718183 -0.695806 0.00816078
    length 4.904
    axis 0 0 0 xyz
  end
  begin
    id 2
    name RightUpLeg
    direction 3.53373e-006 -0.995788 0.0916898
    length 17.4976
    axis -3.49089 -0.000906625 0.000286804 xyz
    dof rx ry rz
  end
  begin
    id 3
    name RightLeg
    direction 0.00371092 -0.995096 -0.0988419
    length 16.5821
    axis 3.68512 0.0193738 -0.131023 xyz
    dof rx ry rz
  end
  begin
    id 4
    name RightFoot
    direction 0.00079151 -0.46099 0.887405
    length 3.77069
    axis 4.81691e-005 -0.120479 -0.188788 xyz
    dof rx ry rz
  end
  begin
    id 5
    name RightToes
    direction 0 0 0
    length 0
    axis 0 0 0 xyz
    dof rx ry rz
  end
  begin
    id 6
    name SpineDummy
    direction 8.3039e-015 1 4.57515e-016
    length 4.6813
    axis 0 0 0 xyz
  end
  begin
    id 7
    name Spine
    direction -3.15643e-008 0.999988 0.00495137
    length 10.1015
    axis -0.001389 0.000121418 2.40972e-006 xyz
    dof rx ry rz
  end
  begin
    id 8
    name Spine1
    direction 0 0 0
    length 0
    axis -0.001389 0.000121451 1.30017e-006 xyz
    dof rx ry rz
  end
  begin
    id 9
    name HEadDummy
    direction -1.99912e-008 0.999999 0.00127422
    length 3.43865
    axis -0.001389 0.000121451 1.30017e-006 xyz
  end
  begin
    id 10
    name HEad
    direction 0 0 0
    length 0
    axis 0 0 0 xyz
    dof rx ry rz
  end
  begin
    id 11
    name LeftShoulder1Dummy
    direction 0.998891 -0.0402509 -0.0244456
    length 3.5433
    axis -0.001389 0.000121451 1.30017e-006 xyz
  end
  begin
    id 12
    name LeftShoulder1
    direction 0.99951 -0.000327763 0.0313091
    length 4.05031
    axis -0.001389 0.000121451 1.30017e-006 xyz
    dof rx ry rz
  end
  begin
    id 13
    name LeftArm
    direction 0.998561 -0.00100056 -0.0536182
    length 10.3537
    axis -23.1894 0.134784 0.967509 xyz
    dof rx ry rz
  end
  begin
    id 14
    name LeftForeArm
    direction 0.998903 0.00866432 0.046012
    length 8.70632
    axis -9.91835 -0.06569 -0.177794 xyz
    dof rx ry rz
  end
  begin
    id 15
    name LeftHand
    direction 0 0 0
    length 0
    axis 0 0 0 xyz
    dof rx ry rz
  end
  begin
    id 16
    name RightShoulderDummy
    direction -0.998891 -0.0402509 -0.0244414
    length 3.5433
    axis -0.001389 0.000121451 1.30017e-006 xyz
  end
  begin
    id 17
    name RightShoulder
    direction -0.99951 -0.000327807 0.0313133
    length 4.05031
    axis 0.215806 0.000203643 -0.0068026 xyz
    dof rx ry rz
  end
  begin
    id 18
    name RightArm
    direction -0.998573 -0.000999564 -0.053403
    length 10.3947
    axis -23.2009 -0.134239 -0.964101 xyz
    dof rx ry rz
  end
  begin
    id 19
    name RightForeArm
    direction -0.998898 0.00868028 0.0461306
    length 8.68355
    axis -9.92322 0.0658061 0.178868 xyz
    dof rx ry rz
  end
  begin
    id 20
    name RightHand
    direction 0 0 0
    length 0
    axis 0 0 0 xyz
    dof rx ry rz
  end
  begin
    id 21
    name LeftUpLegDummy
    direction 0.718183 -0.695806 0.00816078
    length 4.904
    axis 0 0 0 xyz
  end
  begin
    id 22
    name LeftUpLeg
    direction -6.81752e-006 -0.995793 0.0916337
    length 17.4976
    axis -3.48766 0.00143442 -0.000524262 xyz
    dof rx ry rz
  end
  begin
    id 23
    name LeftLeg
    direction -0.00601358 -0.995091 -0.0987824
    length 16.5821
    axis 3.68178 -0.00654042 -0.000285133 xyz
    dof rx ry rz
  end
  begin
    id 24
    name LeftFoot
    direction -0.00417578 -0.460984 0.887399
    length 3.77069
    axis 1.87233e-006 4.66016e-005 -8.6538e-006 xyz
    dof rx ry rz
  end
  begin
    id 25
    name LeftToes
    direction 0 0 0
    length 0
    axis 0 0 0 xyz
    dof rx ry rz
  end
:hierarchy
  begin
    root RightUpLegDummy SpineDummy LeftUpLegDummy
    RightUpLegDummy RightUpLeg
    RightUpLeg RightLeg
    RightLeg RightFoot
    RightFoot RightToes
    SpineDummy Spine
    Spine Spine1
    Spine1 HEadDummy LeftShoulder1Dummy RightShoulderDummy
    HEadDummy HEad
    LeftShoulder1Dummy LeftShoulder1
    LeftShoulder1 LeftArm
    LeftArm LeftForeArm
    LeftForeArm LeftHand
    RightShoulderDummy RightShoulder
    RightShoulder RightArm
    RightArm RightForeArm
    RightForeArm RightHand
    LeftUpLegDummy LeftUpLeg
    LeftUpLeg LeftLeg
    LeftLeg LeftFoot
    LeftFoot LeftToes
  end

:SAMPLES-PER-SECOND 30
:FULLY-SPECIFIED
:DEGREES
64
root  56.5377 40.038 -6.82832 -27.8274 -84.4098 27.4599
RightUpLeg  -2.44959 -13.2549 -6.42405
RightLeg  15.0473 -11.6822 2.38063
RightFoot  -9.0631 -0.0188176 -2.13811
RightToes  0.000481921 0.542163 -0.142578
Spine  4.65685 -1.35763 6.18474
Spine1  9.40493 -1.44045 1.78666
HEad  34.2443 -8.90678 3.98227
LeftShoulder1  10.3507 -15.1433 -48.4616
LeftArm  -5.7271 12.8102 -27.3362
LeftForeArm  40.0149 -34.8309 -5.48167
LeftHand  -0.25398 0.0180481 5.50724
RightShoulder  4.94122 9.12829 33.174
RightArm  9.15311 6.40751 35.5952
RightForeArm  -9.90534 16.6464 7.69537
RightHand  -1.714 5.92839 -17.8357
LeftUpLeg  -12.7424 10.0765 1.3395
LeftLeg  25.7364 6.56478 3.76494
LeftFoot  -4.89446 0.544801 -9.14237
LeftToes  1.06246e-005 4.65868e-005 -8.65513e-006
65
root  56.0804 40.0672 -6.88172 -27.3298 -83.9694 27.3609
RightUpLeg  -1.4689 -12.5211 -6.68451
RightLeg  13.9312 -12.75 2.76488
RightFoot  -9.41038 -0.0351655 -1.69608
RightToes  0.000481921 0.542163 -0.142578
Spine  4.55076 -1.01865 6.18194
Spine1  9.63359 -1.04792 1.36476
HEad  34.5369 -9.7915 3.18102
LeftShoulder1  10.3229 -15.0215 -48.6508
LeftArm  -5.77417 14.5365 -26.6699
LeftForeArm  39.7008 -34.9543 -5.52952
LeftHand  -0.25398 0.0180481 5.50724
RightShoulder  4.88935 9.0097 33.1308
RightArm  7.75427 5.95222 35.1781
RightForeArm  -9.26066 16.0627 7.86149
RightHand  -1.75226 6.03999 -18.0511
LeftUpLeg  -14.1852 11.5098 0.454976
LeftLeg  21.7976 5.39799 2.70762
LeftFoot  -3.97902 0.601078 -8.96625
LeftToes  1.06246e-005 4.65868e-005 -8.65513e-006
66
root  55.588 40.0937 -6.91111 -27.6788 -83.7338 27.963
RightUpLeg  -0.329367 -11.918 -6.8486
RightLeg  12.7732 -13.4949 3.01928
RightFoot  -9.6527 -0.0440403 -1.44672
RightToes  0.000481921 0.542163 -0.142578
Spine  4.55509 -0.668429 6.07231
Spine1  9.85569 -0.613366 0.895246
HEad  34.923 -10.2702 2.19302
LeftShoulder1  10.2976 -14.9199 -48.8001
LeftArm  -5.70524 16.3969 -26.092
LeftForeArm  38.9931 -34.2051 -5.38242
LeftHand  -0.25398 0.0180481 5.50724
RightShoulder  4.88332 8.93024 33.3308
RightArm  6.54337 5.31952 34.6691
RightForeArm  -7.93284 15.2083 8.12829
RightHand  -1.70759 5.90438 -17.8062
LeftUpLeg  -15.1082 13.1639 -0.381886
LeftLeg  17.3938 3.66591 1.61489
LeftFoot  -2.92461 0.656697 -8.67089
LeftToes  1.06246e-005 4.65868e-005 -8.65513e-006
67
root  55.0544 40.1135 -6.90048 -28.541 -83.6033 29.0273
RightUpLeg  0.749572 -11.6215 -7.04143
RightLeg  11.9157 -13.7245 3.13409
RightFoot  -9.8267 -0.0505759 -1.20583
RightToes  0.000481921 0.542163 -0.142578
Spine  4.34434 -0.400766 5.90072
Spine1  10.3263 -0.232899 0.338571
HEad  35.5909 -10.2491 0.934051
LeftShoulder1  10.2548 -14.8199 -48.863
LeftArm  -5.3696 18.1514 -25.6555
LeftForeArm  37.7545 -32.3069 -4.99152
LeftHand  -0.25398 0.0180481 5.50724
RightShoulder  4.94015 8.95289 33.7132
RightArm  5.10666 4.67631 34.2132
RightForeArm  -5.64372 13.8824 8.52318
RightHand  -1.62702 5.70169 -17.2924
LeftUpLeg  -15.4465 13.4708 -0.68993
LeftLeg  12.6203 2.87167 0.188056
LeftFoot  -1.71544 0.750084 -8.77078
LeftToes  1.06246e-005 4.65868e-005 -8.65513e-006
68
root  54.4806 40.1177 -6.83837 -29.0539 -83.6001 29.7485
RightUpLeg  1.70931 -11.5298 -7.25152
RightLeg  11.4254 -13.5871 3.18759
RightFoot  -10.0362 -0.0581348 -0.860594
RightToes  0.000481921 0.542163 -0.142578
Spine  3.81492 -0.233208 5.81145
Spine1  11.1185 0.0777534 -0.314803
HEad  36.5434 -9.77593 -0.600213
LeftShoulder1  10.199 -14.7236 -48.8537
LeftArm  -4.55594 19.6708 -25.4056
LeftForeArm  35.943 -29.3373 -4.40048
LeftHand  -0.25398 0.0180481 5.50724
RightShoulder  5.00133 8.98982 34.0827
RightArm  3.49125 4.01764 34.0078
RightForeArm  -3.18847 12.346 8.90477
RightHand  -1.58133 5.54488 -17.0529
LeftUpLeg  -15.1322 9.07146 0.648429
LeftLeg  7.56208 6.66824 -2.0868
LeftFoot  0.132834 0.869732 -8.6685
LeftToes  1.06246e-005 4.65868e-005 -8.65513e-006
69
root  53.8706 40.1 -6.72815 -29.0028 -83.7891 29.8472
RightUpLeg  2.74311 -11.4697 -7.41499
RightLeg  11.0237 -13.3271 3.24845
RightFoot  -10.3344 -0.0663546 -0.411848
RightToes  0.000481921 0.542163 -0.142578
Spine  3.24885 -0.137702 5.754
Spine1  11.9793 0.324202 -0.935589
HEad  37.5942 -8.93262 -2.27173
LeftShoulder1  10.1482 -14.629 -48.8638
LeftArm  -3.22915 21.0592 -25.318
LeftForeArm  33.5918 -25.6968 -3.72787
LeftHand  -0.25398 0.0180481 5.50724
RightShoulder  5.03735 8.97684 34.4092
RightArm  2.20927 3.20146 34.0048
RightForeArm  -1.26329 11.0986 9.12498
RightHand  -1.55956 5.39792 -17.0431
LeftUpLeg  -14.6607 4.45467 2.07493
LeftLeg  2.46553 11.1123 -4.11451
LeftFoot  2.59913 0.983517 -8.16369
LeftToes  1.06246e-005 4.65868e-005 -8.65513e-006
70
root  53.2215 40.0483 -6.57095 -28.161 -84.1201 29.0941
RightUpLeg  3.85233 -11.4076 -7.52342
RightLeg  10.7047 -13.0257 3.29274
RightFoot  -10.758 -0.073711 0.192175
RightToes  0.000481921 0.542163 -0.142578
Spine  2.79557 -0.111111 5.60343
Spine1  12.679 0.441021 -1.30369
HEad  38.5774 -7.83594 -3.99278
LeftShoulder1  10.1024 -14.5105 -48.9634
LeftArm  -2.27394 22.3887 -25.2986
LeftForeArm  31.678 -21.7208 -3.40737
LeftHand  -0.25398 0.0180481 5.50724
RightShoulder  5.06659 8.93466 34.776
RightArm  1.46929 2.14759 34.0491
RightForeArm  0.209854 10.4131 9.17019
RightHand  -1.51637 5.2429 -16.8159
LeftUpLeg  -14.2385 3.03372 2.566
LeftLeg  -1.70326 13.4333 -5.31612
LeftFoot  4.64931 1.13129 -8.23672
LeftToes  1.06246e-005 4.65868e-005 -8.65513e-006
71
root  52.5229 39.9512 -6.35503 -25.7177 -84.5245 26.8024
RightUpLeg  4.81527 -11.4153 -7.60087
RightLeg  10.7406 -12.5978 3.30435
RightFoot  -11.3357 -0.0767217 0.99732
RightToes  0.000481921 0.542163 -0.142578
Spine  2.23585 -0.14669 5.46627
Spine1  13.2626 0.421836 -1.43758
HEad  39.4568 -6.63492 -5.73607
LeftShoulder1  10.0458 -14.3706 -49.0705
LeftArm  -3.64254 23.6528 -25.2597
LeftForeArm  32.5795 -17.5992 -4.12516
LeftHand  -0.25398 0.0180481 5.50724
RightShoulder  5.08462 8.86575 35.1428
RightArm  1.05904 0.838842 34.161
RightForeArm  1.18559 10.272 9.08771
RightHand  -1.43296 4.97811 -16.3066
LeftUpLeg  -14.0854 3.29187 2.66509
LeftLeg  -4.04076 15.0483 -6.1287
LeftFoot  5.73035 1.28941 -8.8012
LeftToes  1.06246e-005 4.65868e-005 -8.65513e-006
72
root  51.7726 39.8391 -6.079 -22.8426 -84.9915 24.1646
RightUpLeg  5.76197 -11.5415 -7.82166
RightLeg  10.8505 -11.892 3.356
RightFoot  -11.8877 -0.0714273 1.92775
RightToes  0.000481921 0.542163 -0.142578
Spine  1.47057 -0.226995 5.26948
Spine1  13.917 0.387295 -1.61755
HEad  40.2327 -5.39679 -7.40176
LeftShoulder1  9.97835 -14.2456 -49.084
LeftArm  -5.7371 24.9976 -25.2842
LeftForeArm  34.8388 -13.942 -4.88893
LeftHand  -0.25398 0.0180481 5.50724
RightShoulder  5.07579 8.76041 35.4186
RightArm  0.908617 -0.683003 34.3967
RightForeArm  1.26317 10.5086 8.96494
RightHand  -1.33407 4.52947 -15.8714
LeftUpLeg  -14.229 3.46243 2.57079
LeftLeg  -4.47817 16.6823 -6.58963
LeftFoot  7.03311 1.15672 -7.45797
LeftToes  1.06246e-005 4.65868e-005 -8.65513e-006
73
root  50.9711 39.7518 -5.75875 -24.0904 -85.524 25.4801
RightUpLeg  7.10456 -11.7816 -8.53411
RightLeg  10.6727 -10.738 3.39941
RightFoot  -12.239 -0.0591723 3.01035
RightToes  0.000481921 0.542163 -0.142578
Spine  0.775065 -0.332602 4.50425
Spine1  14.7072 0.394954 -1.86266
HEad  40.8561 -4.09418 -8.86329
LeftShoulder1  9.92994 -14.134 -49.1551
LeftArm  -6.88188 26.5039 -25.2014
LeftForeArm  36.5532 -11.3992 -5.21087
LeftHand  -0.25398 0.0180481 5.50724
RightShoulder  5.07588 8.6685 35.7252
RightArm  1.0158 -2.17912 34.607
RightForeArm  0.759868 10.8092 8.8985
RightHand  -1.2894 4.2294 -15.8093
LeftUpLeg  -14.0698 3.42415 1.97038
LeftLeg  -3.87679 17.5897 -6.55885
LeftFoot  9.48046 0.448593 -2.7818
LeftToes  1.06246e-005 4.65868e-005 -8.65513e-006
74
root  50.1215 39.701 -5.41122 -33.1496 -85.9717 34.2364
RightUpLeg  8.81837 -12.1566 -9.92371
RightLeg  10.5793 -9.10246 3.23543
RightFoot  -12.3009 -0.0464752 4.43045
RightToes  0.000481921 0.542163 -0.142578
Spine  0.310946 -0.424395 2.93365
Spine1  15.5963 0.386807 -1.92266
HEad  41.2751 -2.73077 -10.0795
LeftShoulder1  9.93152 -13.9968 -49.5481
LeftArm  -7.05743 27.7046 -24.599
LeftForeArm  37.2974 -9.87185 -5.31707
LeftHand  -0.25398 0.0180481 5.50724
RightShoulder  5.12054 8.61593 36.2618
RightArm  0.719778 -3.38165 34.7497
RightForeArm  0.793328 10.8266 8.84792
RightHand  -1.34887 4.47871 -16.1159
LeftUpLeg  -13.823 3.33242 1.0384
LeftLeg  -1.53836 17.7998 -6.03428
LeftFoot  10.7954 -0.525905 2.38998
LeftToes  1.06246e-005 4.65868e-005 -8.65513e-006
75
root  49.2597 39.732 -5.05255 -47.9481 -86.0371 48.6118
RightUpLeg  10.4189 -12.7419 -11.8114
RightLeg  10.806 -7.2233 2.84485
RightFoot  -11.5935 -0.0660964 6.19156
RightToes  0.000481921 0.542163 -0.142578
Spine  -0.143248 -0.473498 1.07284
Spine1  16.5976 0.471486 -2.1226
HEad  41.5231 -1.34424 -11.0321
LeftShoulder1  9.97082 -13.8447 -50.1762
LeftArm  -6.72563 27.863 -23.3585
LeftForeArm  37.5216 -8.6624 -5.42017
LeftHand  -0.25398 0.0180481 5.50724
RightShoulder  5.15404 8.52236 36.8528
RightArm  -0.920992 -4.49082 35.2963
RightForeArm  1.59598 10.5601 8.62862
RightHand  -1.45452 4.97007 -16.5573
LeftUpLeg  -12.9524 3.4027 0.093168
LeftLeg  0.556022 17.9242 -5.85744
LeftFoot  9.91072 -0.942702 4.69237
LeftToes  1.06246e-005 4.65868e-005 -8.65513e-006
76
root  48.4193 39.842 -4.66884 -61.9187 -86.0821 62.4008
RightUpLeg  11.3076 -13.7249 -13.5741
RightLeg  11.5713 -5.0156 2.32058
RightFoot  -9.90403 -0.171281 8.16966
RightToes  0.000481921 0.542163 -0.142578
Spine  -0.821399 -0.377007 0.28362
Spine1  17.5002 0.976996 -3.21245
HEad  41.6874 0.0868621 -11.6695
LeftShoulder1  9.99029 -13.7269 -50.6127
LeftArm  -6.16309 26.8717 -21.883
LeftForeArm  37.7006 -7.50093 -5.53655
LeftHand  -0.25398 0.0180481 5.50724
RightShoulder  5.09301 8.34594 36.9703
RightArm  -3.53286 -6.08065 36.7716
RightForeArm  1.89122 10.4628 8.19456
RightHand  -1.48167 4.99661 -16.8155
LeftUpLeg  -11.76 3.68207 -0.509057
LeftLeg  1.76558 18.3416 -5.95147
LeftFoot  7.71211 -0.781125 4.36365
LeftToes  1.06246e-005 4.65868e-005 -8.65513e-006
77
root  47.6128 39.9681 -4.24537 -79.5879 -86.6109 80.1313
RightUpLeg  11.2381 -15.1935 -14.7562
RightLeg  13.1358 -2.08181 1.65816
RightFoot  -7.63926 -0.387608 10.3287
RightToes  0.000481921 0.542163 -0.142578
Spine  -1.48388 -0.0498962 1.12745
Spine1  17.8677 1.98 -5.26378
HEad  41.7366 1.56903 -12.0109
LeftShoulder1  9.94382 -13.6345 -50.6481
LeftArm  -5.77207 25.4079 -20.6812
LeftForeArm  37.8996 -6.93431 -5.61824
LeftHand  -0.25398 0.0180481 5.50724
RightShoulder  4.96843 8.21874 36.3919
RightArm  -5.34426 -8.25029 38.8715
RightForeArm  0.980886 10.9077 7.82444
RightHand  -1.39627 4.48356 -16.6554
LeftUpLeg  -10.5981 4.01748 -0.648344
LeftLeg  2.3627 19.1329 -5.91514
LeftFoot  5.85126 -0.657934 4.1239
LeftToes  1.06246e-005 4.65868e-005 -8.65513e-006
78
root  46.8471 40.0544 -3.8055 -108.004 -87.0329 108.595
RightUpLeg  10.2349 -16.2845 -15.329
RightLeg  15.8047 0.671771 0.827396
RightFoot  -5.30725 -0.694527 12.4414
RightToes  0.000481921 0.542163 -0.142578
Spine  -1.72369 0.385913 2.44606
Spine1  17.547 2.99926 -7.26017
HEad  41.4139 2.98263 -12.1569
LeftShoulder1  9.85261 -13.526 -50.5048
LeftArm  -5.82758 24.0598 -19.9323
LeftForeArm  37.6887 -7.5367 -5.65983
LeftHand  -0.25398 0.0180481 5.50724
RightShoulder  4.89717 8.28696 35.5631
RightArm  -4.96007 -10.3181 40.5559
RightForeArm  -0.0152778 11.9188 7.68394
RightHand  -1.26921 3.95705 -15.9961
LeftUpLeg  -9.64166 4.33053 -0.588974
LeftLeg  3.14961 20.2063 -5.58822
LeftFoot  4.40086 -0.698231 4.85801
LeftToes  1.06246e-005 4.65868e-005 -8.65513e-006
